<svg width="250" height="58" viewBox="0 0 250 58" fill="none" xmlns="http://www.w3.org/2000/svg">
    <path fill-rule="evenodd" clip-rule="evenodd" d="M37.48 19.139V0H18.74v19.139H0v19.138h18.74v19.14h18.74v-19.14h18.74V19.138H37.48z" fill="#E3000B"/>
    <path fill-rule="evenodd" clip-rule="evenodd" d="M248.157 25.12h-3.097v2.76h-1.04v2.217h1.04v6.984h3.097v-6.984H250V27.88h-1.843v-2.76zM237.962 29.592c1.02 0 1.65.479 1.953 1.498h-3.948c.346-1.02.976-1.498 1.995-1.498zm.348 5.304c-1.259 0-2.083-.727-2.366-2.017h6.879c-.021-3.39-1.779-5.367-4.774-5.367-2.842 0-4.795 1.914-4.795 4.68 0 2.892 2.061 4.89 5.056 4.89 1.909 0 3.298-.77 4.34-2.373l-1.997-1.206c-.716.977-1.41 1.393-2.343 1.393zM231.864 29.592c-.625-1.414-1.66-2.08-3.233-2.08-2.005 0-3.471 1.27-3.471 2.975 0 1.352.755 2.163 2.587 2.766 1.336.416 1.531.541 1.531 1.04 0 .416-.324.729-.776.729-.583 0-.992-.313-1.337-1.02l-2.284.728c.689 1.685 1.724 2.351 3.577 2.351 2.134 0 3.6-1.228 3.6-3.016 0-.812-.367-1.54-.992-1.977-.452-.312-.689-.416-1.854-.79-.991-.333-1.335-.583-1.335-1.02a.8.8 0 0 1 .797-.79c.431 0 .689.229.97.79l2.22-.686zM223.684 27.512c-1.343.17-2.384.702-3.142 1.637v-1.425h-2.839v9.357h2.839V33c0-.766.109-1.298.368-1.744.348-.596.997-.978 1.669-.978.368 0 .607.085 1.105.319v-3.084zM211.17 34.69c-1.374 0-2.393-1.02-2.393-2.393 0-1.352 1.019-2.393 2.371-2.393 1.329 0 2.325 1.04 2.325 2.413 0 1.332-1.019 2.372-2.303 2.372zm-.023-7.178c-3.101 0-5.405 2.06-5.405 4.805 0 2.746 2.259 4.764 5.339 4.764 3.123 0 5.427-1.997 5.427-4.702 0-2.808-2.282-4.867-5.361-4.867zM205.267 22.727h-3.613l-4.888 6.22v-6.22h-2.985v14.355h2.985v-6.435l5.235 6.435h3.742l-6.122-7.382 5.646-6.973zM183.647 34.69c-1.376 0-2.424-1.02-2.424-2.351 0-1.394 1.07-2.434 2.511-2.434 1.376 0 2.446 1.04 2.446 2.413 0 1.331-1.114 2.371-2.533 2.371zm2.488-6.97v1.165c-.96-.957-1.921-1.373-3.188-1.373-2.664 0-4.717 2.101-4.717 4.826 0 2.725 2.009 4.743 4.739 4.743 1.31 0 2.14-.333 3.166-1.29v1.082h2.861V27.72h-2.861zM171.826 34.625c-1.462 0-2.525-1.047-2.525-2.478 0-1.41 1.063-2.435 2.525-2.435 1.44 0 2.547 1.068 2.547 2.478 0 1.367-1.129 2.435-2.547 2.435zm2.305-13.094v6.942c-.997-.854-1.905-1.217-3.101-1.217-2.658 0-4.762 2.157-4.762 4.913 0 2.798 2.104 4.913 4.873 4.913 1.174 0 1.993-.3 2.99-1.09v.854h2.902V21.531h-2.902zM162.081 21.531c-.972 0-1.794.797-1.794 1.77 0 1.021.797 1.819 1.794 1.819s1.795-.798 1.795-1.795c0-.997-.798-1.794-1.795-1.794zM157.296 21.531c-.972 0-1.794.798-1.794 1.77 0 1.021.797 1.819 1.794 1.819s1.794-.798 1.794-1.794c0-.997-.797-1.795-1.794-1.795zM159.734 34.69c-1.373 0-2.392-1.02-2.392-2.393 0-1.352 1.019-2.393 2.37-2.393 1.329 0 2.326 1.04 2.326 2.413 0 1.332-1.019 2.372-2.304 2.372zm-.022-7.178c-3.102 0-5.405 2.06-5.405 4.805 0 2.746 2.259 4.764 5.338 4.764 3.124 0 5.427-1.997 5.427-4.702 0-2.808-2.281-4.867-5.36-4.867zM149.11 28.861c-.393.237-.917.323-2.118.323h-.437v-4.068h.677c2.009 0 2.73.538 2.73 2.045 0 .775-.284 1.377-.852 1.7zm.698 2.26c2.293-.517 3.319-1.808 3.319-4.175 0-1.42-.437-2.497-1.332-3.229-.917-.774-2.118-.99-5.328-.99h-2.926v14.355h3.013v-5.768l4.04 5.768h3.713l-4.499-5.962zM132.209 34.69c-1.376 0-2.424-1.02-2.424-2.352 0-1.393 1.07-2.434 2.511-2.434 1.376 0 2.446 1.04 2.446 2.413 0 1.332-1.114 2.372-2.533 2.372zm2.489-6.97v1.165c-.961-.957-1.922-1.373-3.188-1.373-2.664 0-4.717 2.1-4.717 4.826 0 2.725 2.009 4.743 4.739 4.743 1.31 0 2.14-.333 3.166-1.29v1.082h2.861V27.72h-2.861zM126.542 27.552h-3.429l-3.133 3.66v-9.68h-2.755v15.55h2.755v-4.137l3.344 4.136h3.47l-4.248-5.002 3.996-4.527zM115.835 29.592c-.625-1.414-1.66-2.08-3.233-2.08-2.005 0-3.47 1.27-3.47 2.975 0 1.352.754 2.163 2.586 2.767 1.337.415 1.53.54 1.53 1.04 0 .416-.323.728-.776.728-.582 0-.991-.312-1.336-1.02l-2.284.728c.689 1.685 1.724 2.351 3.577 2.351 2.134 0 3.6-1.227 3.6-3.016 0-.811-.367-1.54-.992-1.976-.452-.312-.69-.416-1.853-.791-.992-.333-1.337-.582-1.337-1.02a.8.8 0 0 1 .798-.79c.431 0 .69.23.97.79l2.22-.686zM101.022 27.724h-2.936v9.357h2.936v-5.06c0-.681.134-1.064.448-1.404.359-.404.964-.66 1.591-.66 1.143 0 1.659.639 1.659 2.085v5.04h2.936v-5.317c0-1.212-.112-1.957-.381-2.573-.449-1.042-1.637-1.68-3.093-1.68-1.3 0-2.174.383-3.16 1.404v-1.192zM90.832 29.592c1.02 0 1.65.479 1.953 1.498h-3.95c.348-1.02.977-1.498 1.997-1.498zm.349 5.305c-1.259 0-2.084-.728-2.365-2.018h6.878c-.021-3.39-1.78-5.367-4.774-5.367-2.842 0-4.795 1.914-4.795 4.68 0 2.892 2.061 4.89 5.056 4.89 1.91 0 3.298-.77 4.34-2.372l-1.997-1.207c-.716.978-1.41 1.394-2.343 1.394zM86.125 27.512h-2.923l-2.418 5.568-2.418-5.568H75.36l4.185 9.57h2.355l4.226-9.57zM74.97 23.179c-1.283-1.174-2.45-1.648-4.076-1.648-2.747 0-4.761 1.94-4.761 4.627 0 1.805.893 3.092 2.632 3.859 1.672.723 1.672.723 2.106.97.825.43 1.168.926 1.168 1.67 0 .971-.733 1.694-1.717 1.694-.916 0-1.717-.43-2.678-1.4l-1.855 2.325c1.282 1.263 2.61 1.805 4.396 1.805 3.113 0 5.173-1.85 5.173-4.649 0-1.287-.458-2.347-1.374-3.137-.549-.497-1.075-.768-2.243-1.196-1.922-.7-2.495-1.197-2.495-2.145 0-.925.756-1.692 1.694-1.692.847 0 1.488.406 2.106 1.309l1.923-2.392z" fill="#000"/>
</svg>
